<?xml version="1.0" encoding="UTF-8" standalone="no"?>
<!-- Created with Inkscape (http://www.inkscape.org/) -->

<svg
   xmlns:dc="http://purl.org/dc/elements/1.1/"
   xmlns:cc="http://creativecommons.org/ns#"
   xmlns:rdf="http://www.w3.org/1999/02/22-rdf-syntax-ns#"
   xmlns:svg="http://www.w3.org/2000/svg"
   xmlns="http://www.w3.org/2000/svg"
   xmlns:xlink="http://www.w3.org/1999/xlink"
   xmlns:sodipodi="http://sodipodi.sourceforge.net/DTD/sodipodi-0.dtd"
   xmlns:inkscape="http://www.inkscape.org/namespaces/inkscape"
   width="48"
   height="48"
   viewBox="0 0 12.700001 12.7"
   version="1.1"
   id="svg8"
   inkscape:version="0.92.2 5c3e80d, 2017-08-06"
   sodipodi:docname="icon.svg">
  <defs
     id="defs2">
    <clipPath
       clipPathUnits="userSpaceOnUse"
       id="clipPath4578">
      <g
         id="use4580"
         inkscape:label="Clip">
        <path
           inkscape:connector-curvature="0"
           id="path4582"
           d="m 38.661819,118.92351 c 0,-0.12451 0.595313,-2.00338 1.322917,-4.17529 0.727604,-2.1719 1.322917,-4.02988 1.322917,-4.12885 0,-0.099 -1.571061,-1.35358 -3.491246,-2.78804 l -3.491246,-2.60811 4.337782,-0.13229 4.337782,-0.13229 1.356178,-4.23333 1.356179,-4.233336 0.72216,2.38125 c 0.397188,1.309686 0.993347,3.214686 1.324798,4.233326 l 0.602639,1.85209 4.446463,0.0727 4.446464,0.0727 -3.516761,2.63587 c -1.934218,1.44973 -3.551645,2.67076 -3.594282,2.7134 -0.04264,0.0426 0.51146,1.91163 1.231326,4.15331 0.719866,2.24169 1.308847,4.17654 1.308847,4.29965 0,0.17551 -2.834363,-1.85725 -6.75372,-4.84365 -0.155379,-0.1184 -1.456288,0.70283 -3.042708,1.92078 -3.696722,2.83808 -4.226489,3.20661 -4.226489,2.94009 z m 27.407029,-4.10914 c 1.350209,-4.03246 1.410642,-4.32111 0.973064,-4.64766 -0.256604,-0.1915 -1.878073,-1.38213 -3.603268,-2.64584 l -3.136718,-2.29765 4.452152,-0.13229 4.452152,-0.13229 1.354733,-4.23333 1.354733,-4.233336 1.37314,4.299476 1.373142,4.29948 h 4.50913 4.509127 l -3.591499,2.66968 c -1.975324,1.46833 -3.591499,2.75602 -3.591499,2.86154 0,0.10552 0.588981,2.02596 1.308846,4.26765 0.719868,2.24169 1.27571,4.10893 1.23521,4.14944 -0.0405,0.0405 -1.65155,-1.10904 -3.580112,-2.55453 l -3.50647,-2.62816 -3.550478,2.62865 c -1.952763,1.44575 -3.600995,2.62865 -3.662738,2.62865 -0.06175,0 0.535564,-1.93477 1.327353,-4.29948 z m 24.980469,4.22341 c 0,-0.0418 0.59532,-1.85307 1.32292,-4.02498 0.7276,-2.1719 1.32292,-4.09344 1.32292,-4.27009 0,-0.17666 -1.62469,-1.52057 -3.61041,-2.98648 l -3.6104,-2.6653 h 4.51252 4.51253 l 1.387882,-4.29948 1.38788,-4.299476 1.02788,3.30729 c 0.56533,1.819006 1.176681,3.724006 1.358551,4.233336 l 0.33068,0.92604 4.44909,0.13229 4.4491,0.13229 -3.13672,2.29765 c -1.72519,1.26371 -3.34665,2.45434 -3.60326,2.64584 -0.43758,0.32655 -0.37714,0.6152 0.97307,4.64766 0.79177,2.36471 1.38165,4.29948 1.31081,4.29948 -0.0708,0 -1.04449,-0.69281 -2.16368,-1.53957 -1.11919,-0.84676 -2.70673,-2.0317 -3.527861,-2.6332 l -1.49297,-1.09365 -3.513202,2.63321 c -3.31735,2.48641 -3.68733,2.74299 -3.68733,2.55714 z m 26.269743,-0.26949 c 0.31338,-0.81666 2.56985,-7.97407 2.56985,-8.15144 0,-0.0976 -1.57085,-1.35106 -3.49076,-2.78552 l -3.49077,-2.60811 4.27869,-0.0727 c 3.73975,-0.0635 4.30815,-0.13017 4.5125,-0.52917 0.12859,-0.25107 0.74952,-2.14998 1.37985,-4.21979 0.63033,-2.069806 1.19329,-3.716046 1.25104,-3.658296 0.0577,0.0578 0.66612,1.92983 1.35193,4.160176 l 1.24693,4.05517 4.44271,0.0726 4.44272,0.0727 -3.53066,2.6684 c -1.94186,1.46762 -3.54957,2.68508 -3.57269,2.70547 -0.0231,0.0204 0.58808,1.97183 1.35823,4.33655 0.77016,2.36471 1.35169,4.29948 1.2923,4.29948 -0.0594,0 -1.6773,-1.18014 -3.59536,-2.62254 l -3.48738,-2.62254 -3.18682,2.43773 c -3.84111,2.93821 -3.99323,3.03747 -3.77231,2.46179 z m 26.11776,0.1696 c 0,-0.13241 0.59531,-2.01776 1.32292,-4.18967 0.7276,-2.1719 1.32292,-4.02186 1.32292,-4.11101 0,-0.0892 -1.6109,-1.34377 -3.57975,-2.78804 l -3.57974,-2.62595 4.30096,-0.073 c 2.36553,-0.0401 4.38479,-0.15921 4.48726,-0.26459 0.10246,-0.10538 0.77495,-2.02019 1.49442,-4.25514 0.71947,-2.234936 1.36702,-3.961346 1.439,-3.836446 0.072,0.12489 0.25854,0.6438 0.41458,1.15312 0.15604,0.50932 0.71408,2.325026 1.24007,4.034896 l 0.95634,3.10885 h 4.54246 4.54244 l -3.42118,2.51528 c -1.88164,1.38341 -3.52901,2.62311 -3.6608,2.75491 -0.14312,0.14311 0.31624,1.90743 1.14048,4.38049 0.75906,2.27747 1.33798,4.18263 1.28647,4.23368 -0.0515,0.0511 -1.68661,-1.07955 -3.63357,-2.51246 l -3.53994,-2.60529 -3.20694,2.40452 c -1.76381,1.32248 -3.35576,2.51973 -3.53767,2.66055 -0.18746,0.14512 -0.33073,0.15174 -0.33073,0.0153 z"
           style="fill:#ffff00;fill-opacity:1;stroke-width:0.26458335" />
      </g>
    </clipPath>
    <clipPath
       clipPathUnits="userSpaceOnUse"
       id="clipPath4636">
      <use
         x="0"
         y="0"
         xlink:href="#g4632"
         id="use4638"
         width="100%"
         height="100%" />
    </clipPath>
  </defs>
  <sodipodi:namedview
     id="base"
     pagecolor="#ffffff"
     bordercolor="#666666"
     borderopacity="1.0"
     inkscape:pageopacity="0.0"
     inkscape:pageshadow="2"
     inkscape:zoom="4.04"
     inkscape:cx="-10.15341"
     inkscape:cy="19.894596"
     inkscape:document-units="mm"
     inkscape:current-layer="layer1"
     showgrid="true"
     inkscape:window-width="1440"
     inkscape:window-height="788"
     inkscape:window-x="0"
     inkscape:window-y="1"
     inkscape:window-maximized="1"
     showguides="false"
     units="px">
    <inkscape:grid
       type="xygrid"
       id="grid3817"
       originx="0.75500003"
       originy="1.5289344" />
  </sodipodi:namedview>
  <metadata
     id="metadata5">
    <rdf:RDF>
      <cc:Work
         rdf:about="">
        <dc:format>image/svg+xml</dc:format>
        <dc:type
           rdf:resource="http://purl.org/dc/dcmitype/StillImage" />
        <dc:title></dc:title>
      </cc:Work>
    </rdf:RDF>
  </metadata>
  <g
     inkscape:groupmode="layer"
     id="layer2"
     inkscape:label="Stern"
     transform="translate(-64.289129,-158.98269)" />
  <g
     inkscape:groupmode="layer"
     id="layer3"
     inkscape:label="Tellerrand"
     transform="translate(-64.289129,-158.98269)" />
  <g
     inkscape:label="Ebene 1"
     inkscape:groupmode="layer"
     id="layer1"
     style="opacity:1"
     transform="translate(-64.289129,-158.98269)">
    <g
       id="g4634"
       clip-path="url(#clipPath4636)"
       transform="matrix(0.8,0,0,0.8,18.639795,5.5130645)">
      <g
         inkscape:label="Clip"
         id="g4632" />
    </g>
    <g
       id="g857"
       transform="matrix(0.52916667,0,0,0.52916667,64.289129,158.98269)"
       style="fill-rule:evenodd">
      <path
         id="path843"
         d="M 0,0 H 24 V 24 H 0 Z"
         inkscape:connector-curvature="0"
         style="fill:none;fill-rule:evenodd" />
      <g
         id="g862">
        <path
           style="opacity:1;fill:#fec500;fill-opacity:1;stroke-width:0.15800832"
           d="m 82.027405,169.08834 c 0.519379,-1.8633 2.463172,-7.90186 5.531249,-17.1834 3.397176,-10.27713 4.737882,-14.49298 4.737882,-14.89838 0,-0.75028 -4.311109,-4.19761 -19.011373,-15.20222 l -8.337334,-6.24131 1.863231,-0.10572 c 1.024776,-0.0582 8.404776,-0.29217 16.399998,-0.51987 7.995221,-0.2277 14.837245,-0.45088 15.204492,-0.49585 l 0.667741,-0.082 1.257669,-3.90159 c 0.69169,-2.14587 3.07918,-9.58775 5.30549,-16.537496 2.22631,-6.949754 4.07152,-12.659595 4.10047,-12.688563 0.0288,-0.02882 0.20805,0.46663 0.39769,1.101289 2.46077,8.230432 7.06402,22.93445 9.36364,29.91027 l 0.67674,2.05294 0.63205,0.10572 c 0.34762,0.0582 6.78251,0.19262 14.29974,0.29862 7.51723,0.10608 15.11844,0.23689 16.89155,0.29048 l 3.22381,0.0974 -13.85973,10.40179 c -7.62285,5.72098 -13.90275,10.51392 -13.95534,10.65096 -0.0526,0.13709 -0.012,0.65014 0.0883,1.14013 0.24709,1.19574 2.38995,8.28274 4.89946,16.20314 3.76164,11.8722 5.00667,16.00779 4.86257,16.15192 -0.26474,0.26474 -8.22962,-5.41268 -19.76397,-14.08795 -3.4736,-2.61257 -6.48152,-4.84325 -6.68428,-4.9571 -0.29158,-0.16381 -0.49076,-0.16813 -0.95274,-0.0224 -1.51229,0.47988 -5.86285,3.33276 -10.88196,7.13585 -13.990368,10.6008 -16.520599,12.44876 -17.044786,12.44876 -0.165559,0 -0.147104,-0.22444 0.08762,-1.06652 z"
           id="path4599"
           inkscape:connector-curvature="0"
           transform="matrix(0.26200501,0,0,0.25618749,-16.844127,-19.982958)" />
        <path
           style="fill-rule:evenodd"
           inkscape:connector-curvature="0"
           d="M 8.1,13.34 10.93,10.51 3.91,3.5 c -1.56,1.56 -1.56,4.09 0,5.66 z m 6.78,-1.81 c 1.53,0.71 3.68,0.21 5.27,-1.38 1.91,-1.91 2.28,-4.65 0.81,-6.12 -1.46,-1.46 -4.2,-1.1 -6.12,0.81 -1.59,1.59 -2.09,3.74 -1.38,5.27 L 3.7,19.87 5.11,21.28 12,14.41 18.88,21.29 20.29,19.88 13.41,13 Z"
           id="path845" />
      </g>
    </g>
  </g>
</svg>
